<?xml version="1.0" encoding="utf-8"?>
<!-- Generator: Adobe Illustrator 26.2.1, SVG Export Plug-In . SVG Version: 6.00 Build 0)  -->
<svg version="1.1" id="Layer_1" xmlns="http://www.w3.org/2000/svg" xmlns:xlink="http://www.w3.org/1999/xlink" x="0px" y="0px"
	 viewBox="0 0 500 500" style="enable-background:new 0 0 500 500;" xml:space="preserve">
<style type="text/css">
	.st0{fill:url(#SVGID_1_);stroke:#006837;stroke-miterlimit:10;}
	.st1{fill:url(#SVGID_00000067238118114927170960000001657794328276262804_);stroke:#006837;stroke-miterlimit:10;}
	.st2{fill:url(#SVGID_00000067230507884125447010000003261501782768378509_);stroke:#006837;stroke-miterlimit:10;}
	.st3{fill:url(#SVGID_00000111880090498520058610000013863489526091705746_);stroke:#006837;stroke-miterlimit:10;}
	.st4{fill:url(#SVGID_00000178203184250630757540000014024449520558032022_);stroke:#006837;stroke-miterlimit:10;}
	.st5{fill:url(#SVGID_00000003066826899283169140000014074925888878228632_);stroke:#006837;stroke-miterlimit:10;}
	.st6{fill:url(#SVGID_00000150063209403929218000000010283702870276844477_);stroke:#006837;stroke-miterlimit:10;}
	.st7{fill:url(#SVGID_00000093862739340028319330000005640900296044909720_);stroke:#006837;stroke-miterlimit:10;}
	.st8{fill:url(#SVGID_00000076561668560902311590000003315309314383847048_);stroke:#006837;stroke-miterlimit:10;}
	.st9{fill:url(#SVGID_00000144304323741161572560000011074116407784789683_);stroke:#006837;stroke-miterlimit:10;}
	.st10{fill:url(#SVGID_00000034055374779691537150000009759800831901478574_);stroke:#006837;stroke-miterlimit:10;}
	.st11{fill:url(#SVGID_00000114771984687412506130000008547151937994986904_);stroke:#006837;stroke-miterlimit:10;}
	.st12{fill:url(#SVGID_00000039825851526250671810000008126811856518086826_);stroke:#006837;stroke-miterlimit:10;}
	.st13{fill:url(#SVGID_00000058583439839370919120000001717312723422251938_);stroke:#006837;stroke-miterlimit:10;}
	.st14{fill:url(#SVGID_00000180331562902957908980000014316034296845159593_);stroke:#006837;stroke-miterlimit:10;}
	.st15{fill:url(#SVGID_00000129186937774450279380000010267531408281862568_);stroke:#006837;stroke-miterlimit:10;}
	.st16{fill:url(#SVGID_00000044884202979694772250000018313702061065072039_);stroke:#006837;stroke-miterlimit:10;}
	.st17{fill:url(#SVGID_00000112602246463718831240000012021263351798717596_);stroke:#006837;stroke-miterlimit:10;}
	.st18{fill:url(#SVGID_00000065770701475030793490000012190938499497344936_);stroke:#006837;stroke-miterlimit:10;}
	.st19{fill:url(#SVGID_00000054966474852561517120000001951120838971404972_);stroke:#006837;stroke-miterlimit:10;}
	.st20{fill:url(#SVGID_00000050626288005862024000000008758149328498372282_);stroke:#006837;stroke-miterlimit:10;}
	.st21{fill:url(#SVGID_00000125596678197057136540000016715618481266074279_);stroke:#006837;stroke-miterlimit:10;}
	.st22{fill:url(#SVGID_00000031912369794470251460000010965817755051786661_);stroke:#006837;stroke-miterlimit:10;}
</style>
<g>
	<linearGradient id="SVGID_1_" gradientUnits="userSpaceOnUse" x1="21.9309" y1="327.34" x2="170.4189" y2="327.34">
		<stop  offset="0" style="stop-color:#D4145A"/>
		<stop  offset="1" style="stop-color:#FF1F26"/>
	</linearGradient>
	<path class="st0" d="M169.09,314.52c-9.86-49.18-75.17-79.63-115-56c-29.08,17.25-40.22,60.73-26,95c13.81,33.29,52.29,59.65,91,48
		C157.16,390.06,175.75,347.77,169.09,314.52z"/>
	
		<linearGradient id="SVGID_00000060750753249822313780000016484982427062418362_" gradientUnits="userSpaceOnUse" x1="30.6871" y1="313.8404" x2="191.9014" y2="313.8404">
		<stop  offset="0" style="stop-color:#D82969"/>
		<stop  offset="1" style="stop-color:#E82B23"/>
	</linearGradient>
	<path style="fill:url(#SVGID_00000060750753249822313780000016484982427062418362_);stroke:#006837;stroke-miterlimit:10;" d="
		M140.35,395.73c-41.69,13.44-84.81-20.61-99.55-51.73c-18.34-38.72-10.85-85.99,15.18-105.36c48.26-26.62,119.39,4.51,133.27,56.82
		C199.19,332.85,180.74,382.79,140.35,395.73z"/>
	
		<linearGradient id="SVGID_00000019671500104279317350000014000964696797255046_" gradientUnits="userSpaceOnUse" x1="38.7977" y1="300.3407" x2="214.0296" y2="300.3407">
		<stop  offset="0" style="stop-color:#DC3F78"/>
		<stop  offset="1" style="stop-color:#D1361F"/>
	</linearGradient>
	<path style="fill:url(#SVGID_00000019671500104279317350000014000964696797255046_);stroke:#006837;stroke-miterlimit:10;" d="
		M161.96,389.96c-44.67,15.23-92.85-26.37-108.09-55.45c-22.65-43.22-18.62-94.24,4.36-115.73c56.68-29.61,133.81,2.2,151.55,57.64
		C223.07,317.94,204.66,375.52,161.96,389.96z"/>
	
		<linearGradient id="SVGID_00000068678849019390020470000015807491080788603033_" gradientUnits="userSpaceOnUse" x1="46.3334" y1="286.8411" x2="236.7326" y2="286.8411">
		<stop  offset="0" style="stop-color:#E05487"/>
		<stop  offset="1" style="stop-color:#B9421C"/>
	</linearGradient>
	<path style="fill:url(#SVGID_00000068678849019390020470000015807491080788603033_);stroke:#006837;stroke-miterlimit:10;" d="
		M183.92,384.2c-47.65,17.02-101.18-32.02-116.64-59.18c-27.15-47.71-26.39-102.48-6.45-126.09c65.1-32.61,148.34-0.14,169.82,58.45
		C247.37,303.02,228.93,368.27,183.92,384.2z"/>
	
		<linearGradient id="SVGID_00000025429887615001661420000008221321120043971731_" gradientUnits="userSpaceOnUse" x1="53.3621" y1="273.3415" x2="259.9427" y2="273.3415">
		<stop  offset="0" style="stop-color:#E46996"/>
		<stop  offset="1" style="stop-color:#A24E18"/>
	</linearGradient>
	<path style="fill:url(#SVGID_00000025429887615001661420000008221321120043971731_);stroke:#006837;stroke-miterlimit:10;" d="
		M206.2,378.45c-50.63,18.82-109.7-37.58-125.18-62.91c-31.85-52.12-34.15-110.72-17.27-136.45c73.53-35.6,162.96-2.51,188.09,59.27
		C272.07,288.1,253.52,361.03,206.2,378.45z"/>
	
		<linearGradient id="SVGID_00000011744646747325012010000007276195500304520856_" gradientUnits="userSpaceOnUse" x1="59.9438" y1="259.8418" x2="283.5998" y2="259.8418">
		<stop  offset="0" style="stop-color:#E87FA5"/>
		<stop  offset="1" style="stop-color:#8B5A15"/>
	</linearGradient>
	<path style="fill:url(#SVGID_00000011744646747325012010000007276195500304520856_);stroke:#006837;stroke-miterlimit:10;" d="
		M228.8,372.72c-53.61,20.61-118.37-43.06-133.73-66.64c-36.77-56.42-41.92-118.97-28.09-146.82
		c81.95-38.6,177.64-4.91,206.36,60.09C297.13,273.17,278.43,353.81,228.8,372.72z"/>
	
		<linearGradient id="SVGID_00000164501825106712325210000009766339953994165894_" gradientUnits="userSpaceOnUse" x1="66.1286" y1="246.3422" x2="307.6537" y2="246.3422">
		<stop  offset="0" style="stop-color:#EB94B4"/>
		<stop  offset="1" style="stop-color:#746511"/>
	</linearGradient>
	<path style="fill:url(#SVGID_00000164501825106712325210000009766339953994165894_);stroke:#006837;stroke-miterlimit:10;" d="
		M251.68,366.99c-56.59,22.4-127.13-48.48-142.27-70.36C67.49,236.06,59.72,169.42,70.5,139.45
		c90.37-41.59,192.36-7.32,224.64,60.91C322.52,258.24,303.62,346.6,251.68,366.99z"/>
	
		<linearGradient id="SVGID_00000142154300151647577460000005995635135771453627_" gradientUnits="userSpaceOnUse" x1="71.9545" y1="232.8426" x2="332.0665" y2="232.8426">
		<stop  offset="0" style="stop-color:#EFAAC3"/>
		<stop  offset="1" style="stop-color:#5D710E"/>
	</linearGradient>
	<path style="fill:url(#SVGID_00000142154300151647577460000005995635135771453627_);stroke:#006837;stroke-miterlimit:10;" d="
		M274.84,361.28c-59.56,24.19-135.95-53.84-150.82-74.09C76.68,222.69,66.57,151.74,74.3,119.65
		c98.8-44.58,207.11-9.77,242.91,61.73C348.21,243.29,329.09,339.39,274.84,361.28z"/>
	
		<linearGradient id="SVGID_00000092454206732717143900000003256090508650350725_" gradientUnits="userSpaceOnUse" x1="77.4433" y1="219.3429" x2="356.8165" y2="219.3429">
		<stop  offset="0" style="stop-color:#F3BFD2"/>
		<stop  offset="1" style="stop-color:#467D0A"/>
	</linearGradient>
	<path style="fill:url(#SVGID_00000092454206732717143900000003256090508650350725_);stroke:#006837;stroke-miterlimit:10;" d="
		M298.27,355.58c-62.54,25.98-144.83-59.15-159.36-77.82c-53.07-68.18-65.23-143.7-60.55-177.91
		c107.22-47.58,221.89-12.23,261.18,62.55C374.19,228.33,354.83,332.2,298.27,355.58z"/>
	
		<linearGradient id="SVGID_00000028320538807396560110000003226171135948798616_" gradientUnits="userSpaceOnUse" x1="82.5898" y1="205.8433" x2="381.9088" y2="205.8433">
		<stop  offset="0" style="stop-color:#F7D4E1"/>
		<stop  offset="1" style="stop-color:#2E8907"/>
	</linearGradient>
	<path style="fill:url(#SVGID_00000028320538807396560110000003226171135948798616_);stroke:#006837;stroke-miterlimit:10;" d="
		M321.99,349.89c-65.52,27.78-153.74-64.41-167.91-81.55C94.93,196.81,81.08,116.4,82.71,80.07
		c115.64-50.57,236.68-14.7,279.45,63.36C400.49,213.36,380.86,325.02,321.99,349.89z"/>
	
		<linearGradient id="SVGID_00000048497515363781950850000004940965148428309692_" gradientUnits="userSpaceOnUse" x1="87.3784" y1="192.3437" x2="407.3589" y2="192.3437">
		<stop  offset="0" style="stop-color:#FBEAF0"/>
		<stop  offset="1" style="stop-color:#179403"/>
	</linearGradient>
	<path style="fill:url(#SVGID_00000048497515363781950850000004940965148428309692_);stroke:#006837;stroke-miterlimit:10;" d="
		M346.01,344.2c-68.5,29.57-162.66-69.62-176.45-85.27C103.94,184.47,88.8,98.74,87.38,60.29c124.07-53.57,251.49-17.2,297.73,64.18
		C427.11,198.39,407.19,317.84,346.01,344.2z"/>
	
		<linearGradient id="SVGID_00000080205190091308798750000004873785976259723152_" gradientUnits="userSpaceOnUse" x1="92.086" y1="178.844" x2="432.8901" y2="178.844">
		<stop  offset="0" style="stop-color:#FFFFFF"/>
		<stop  offset="1" style="stop-color:#00A000"/>
	</linearGradient>
	<path style="fill:url(#SVGID_00000080205190091308798750000004873785976259723152_);stroke:#006837;stroke-miterlimit:10;" d="
		M370.09,338.52c-71.48,31.36-171.59-74.79-185-89c-72.52-76.89-88.53-168.43-93-209c132.49-56.56,266.3-19.7,316,65
		C453.79,183.41,433.58,310.67,370.09,338.52z"/>
	
		<linearGradient id="SVGID_00000178199614142980848610000004052413238555080079_" gradientUnits="userSpaceOnUse" x1="99.7317" y1="191.7628" x2="440.5357" y2="191.7628" gradientTransform="matrix(0.9926 0.0359 -0.0359 0.9926 5.8711 -11.2474)">
		<stop  offset="0" style="stop-color:#FFFFFF"/>
		<stop  offset="1" style="stop-color:#00A900"/>
	</linearGradient>
	<path style="fill:url(#SVGID_00000178199614142980848610000004052413238555080079_);stroke:#006837;stroke-miterlimit:10;" d="
		M368.2,351.15c-72.08,28.56-167.64-80.4-180.44-94.98c-69.22-78.93-81.83-170.36-84.81-210.79c133.54-51.39,265.04-10,311.33,75.86
		C456.85,200.19,432.22,325.79,368.2,351.15z"/>
	
		<linearGradient id="SVGID_00000161602022517078264850000009642781591766572457_" gradientUnits="userSpaceOnUse" x1="108.2598" y1="204.4018" x2="449.0639" y2="204.4018" gradientTransform="matrix(0.9852 0.0718 -0.0718 0.9852 11.7423 -22.4949)">
		<stop  offset="0" style="stop-color:#FFFFFF"/>
		<stop  offset="1" style="stop-color:#00B100"/>
	</linearGradient>
	<path style="fill:url(#SVGID_00000161602022517078264850000009642781591766572457_);stroke:#006837;stroke-miterlimit:10;" d="
		M366.16,363.93c-72.68,25.77-163.69-86-175.88-100.97c-65.93-80.96-75.13-172.3-76.62-212.59
		c134.59-46.21,263.78-0.29,306.67,86.72C459.76,217.12,430.71,341.05,366.16,363.93z"/>
	
		<linearGradient id="SVGID_00000106118661917021624030000012608698081998400902_" gradientUnits="userSpaceOnUse" x1="117.6486" y1="216.6682" x2="458.4526" y2="216.6682" gradientTransform="matrix(0.9778 0.1077 -0.1077 0.9778 17.6134 -33.7423)">
		<stop  offset="0" style="stop-color:#FFFFFF"/>
		<stop  offset="1" style="stop-color:#00BA00"/>
	</linearGradient>
	<path style="fill:url(#SVGID_00000106118661917021624030000012608698081998400902_);stroke:#006837;stroke-miterlimit:10;" d="
		M363.97,376.86c-73.27,22.97-159.73-91.61-171.32-106.95c-62.63-83-68.43-174.23-68.43-214.38c135.64-41.04,262.52,9.41,302,97.59
		C462.52,234.2,429.05,356.47,363.97,376.86z"/>
	
		<linearGradient id="SVGID_00000124133373090551290320000008137728493475508359_" gradientUnits="userSpaceOnUse" x1="128.0043" y1="228.4501" x2="468.8084" y2="228.4501" gradientTransform="matrix(0.9705 0.1436 -0.1436 0.9705 23.4846 -44.9898)">
		<stop  offset="0" style="stop-color:#FFFFFF"/>
		<stop  offset="1" style="stop-color:#00C300"/>
	</linearGradient>
	<path style="fill:url(#SVGID_00000124133373090551290320000008137728493475508359_);stroke:#006837;stroke-miterlimit:10;" d="
		M361.77,389.96c-73.87,20.17-155.78-97.22-166.76-112.93C135.67,192,133.28,100.86,134.77,60.85
		C271.46,24.98,396.03,79.97,432.1,169.3C465.27,251.45,427.38,372.05,361.77,389.96z"/>
	
		<linearGradient id="SVGID_00000077304211190611530280000000618494879485714313_" gradientUnits="userSpaceOnUse" x1="139.4145" y1="239.6189" x2="480.2185" y2="239.6189" gradientTransform="matrix(0.9631 0.1795 -0.1795 0.9631 29.3557 -56.2372)">
		<stop  offset="0" style="stop-color:#FFFFFF"/>
		<stop  offset="1" style="stop-color:#00CB00"/>
	</linearGradient>
	<path style="fill:url(#SVGID_00000077304211190611530280000000618494879485714313_);stroke:#006837;stroke-miterlimit:10;" d="
		M359.69,403.22C285.23,420.6,207.86,300.4,197.5,284.31c-56.04-87.07-55.03-178.1-52.06-217.97
		c137.75-30.69,260,28.82,292.66,119.31C468.14,268.86,425.84,387.8,359.69,403.22z"/>
	
		<linearGradient id="SVGID_00000160155924977023575460000009286519312413737379_" gradientUnits="userSpaceOnUse" x1="151.8106" y1="250.063" x2="492.6146" y2="250.063" gradientTransform="matrix(0.9557 0.2154 -0.2154 0.9557 35.2268 -67.4847)">
		<stop  offset="0" style="stop-color:#FFFFFF"/>
		<stop  offset="1" style="stop-color:#00D400"/>
	</linearGradient>
	<path style="fill:url(#SVGID_00000160155924977023575460000009286519312413737379_);stroke:#006837;stroke-miterlimit:10;" d="
		M357.75,416.66c-75.07,14.58-147.88-108.43-157.63-124.9c-52.75-89.1-48.33-180.03-43.87-219.77
		c138.8-25.52,258.74,38.52,288,130.17C471.14,286.45,424.42,403.72,357.75,416.66z"/>
	
		<linearGradient id="SVGID_00000000923145256558025090000008600382560040746658_" gradientUnits="userSpaceOnUse" x1="165.1083" y1="259.6812" x2="505.9123" y2="259.6812" gradientTransform="matrix(0.9483 0.2513 -0.2513 0.9483 41.098 -78.7321)">
		<stop  offset="0" style="stop-color:#FFFFFF"/>
		<stop  offset="1" style="stop-color:#00DC00"/>
	</linearGradient>
	<path style="fill:url(#SVGID_00000000923145256558025090000008600382560040746658_);stroke:#006837;stroke-miterlimit:10;" d="
		M355.93,430.28C280.27,442.05,212,316.24,202.86,299.39c-49.45-91.14-41.63-181.97-35.68-221.56
		c139.85-20.35,257.48,48.23,283.33,141.04C474.27,304.22,423.13,419.82,355.93,430.28z"/>
	
		<linearGradient id="SVGID_00000165236097824805268670000004482656103935526059_" gradientUnits="userSpaceOnUse" x1="179.2078" y1="268.3855" x2="520.0118" y2="268.3855" gradientTransform="matrix(0.9409 0.2872 -0.2872 0.9409 46.9691 -89.9795)">
		<stop  offset="0" style="stop-color:#FFFFFF"/>
		<stop  offset="1" style="stop-color:#00E500"/>
	</linearGradient>
	<path style="fill:url(#SVGID_00000165236097824805268670000004482656103935526059_);stroke:#006837;stroke-miterlimit:10;" d="
		M354.24,444.07c-76.26,8.98-139.97-119.64-148.51-136.86c-46.16-93.17-34.93-183.9-27.49-223.36
		c140.9-15.17,256.22,57.93,278.66,151.9C477.54,322.16,421.98,436.1,354.24,444.07z"/>
	
		<linearGradient id="SVGID_00000066488937017536468020000008266045073116340386_" gradientUnits="userSpaceOnUse" x1="193.9969" y1="276.1037" x2="534.801" y2="276.1037" gradientTransform="matrix(0.9335 0.323 -0.323 0.9335 52.8402 -101.227)">
		<stop  offset="0" style="stop-color:#FFFFFF"/>
		<stop  offset="1" style="stop-color:#00EE00"/>
	</linearGradient>
	<path style="fill:url(#SVGID_00000066488937017536468020000008266045073116340386_);stroke:#006837;stroke-miterlimit:10;" d="
		M352.68,458.06c-76.86,6.18-136.02-125.25-143.95-142.85c-42.86-95.21-28.23-185.83-19.3-225.15c141.95-10,254.96,67.64,274,162.76
		C480.93,340.3,420.95,452.57,352.68,458.06z"/>
	
		<linearGradient id="SVGID_00000139281769457622820580000006081954331151642016_" gradientUnits="userSpaceOnUse" x1="209.3545" y1="282.7813" x2="550.1585" y2="282.7813" gradientTransform="matrix(0.9261 0.3589 -0.3589 0.9261 58.7114 -112.4744)">
		<stop  offset="0" style="stop-color:#FFFFFF"/>
		<stop  offset="1" style="stop-color:#00F600"/>
	</linearGradient>
	<path style="fill:url(#SVGID_00000139281769457622820580000006081954331151642016_);stroke:#006837;stroke-miterlimit:10;" d="
		M351.25,472.23c-77.46,3.39-132.07-130.86-139.39-148.83c-39.56-97.24-21.53-187.77-11.11-226.94
		c143.01-4.83,253.7,77.34,269.33,173.62C484.45,358.62,420.05,469.23,351.25,472.23z"/>
	
		<linearGradient id="SVGID_00000166644105733515091810000003566066248683491003_" gradientUnits="userSpaceOnUse" x1="225.1539" y1="288.3816" x2="565.958" y2="288.3816" gradientTransform="matrix(0.9188 0.3948 -0.3948 0.9188 64.5825 -123.7219)">
		<stop  offset="0" style="stop-color:#FFFFFF"/>
		<stop  offset="1" style="stop-color:#00FF00"/>
	</linearGradient>
	<path style="fill:url(#SVGID_00000166644105733515091810000003566066248683491003_);stroke:#006837;stroke-miterlimit:10;" d="
		M349.95,486.59c-78.05,0.59-128.12-136.46-134.83-154.81c-36.27-99.28-14.84-189.7-2.92-228.74
		c144.06,0.35,252.44,87.04,264.66,184.49C488.09,377.13,419.28,486.07,349.95,486.59z"/>
</g>
</svg>
